<?xml version="1.0" encoding="UTF-8" standalone="no"?>
<!DOCTYPE svg PUBLIC "-//W3C//DTD SVG 1.1//EN" "http://www.w3.org/Graphics/SVG/1.1/DTD/svg11.dtd">
<svg width="100%" height="100%" viewBox="0 0 393 390" version="1.1" xmlns="http://www.w3.org/2000/svg" xmlns:xlink="http://www.w3.org/1999/xlink" xml:space="preserve" xmlns:serif="http://www.serif.com/" style="fill-rule:evenodd;clip-rule:evenodd;stroke-linecap:round;stroke-linejoin:round;">
    <g transform="matrix(1,0,0,1,0,-1252.4)">
        <g id="Logo_outline" transform="matrix(0.931486,0,0,0.997539,449.74,1252.4)">
            <rect x="-482.82" y="0" width="421.411" height="390" style="fill:none;"/>
            <g transform="matrix(1.07355,0,0,1.00247,20.0151,-0.481118)">
                <g transform="matrix(1,0,0,1,-472.115,-5)">
                    <circle cx="200" cy="200" r="190" style="fill:white;"/>
                </g>
                <g transform="matrix(1,0,0,1,-472.115,-5)">
                    <g transform="matrix(4.58333,0,0,4.58333,-716.667,-716.667)">
                        <circle cx="200" cy="200" r="30" style="stroke:black;stroke-width:5.83px;"/>
                    </g>
                    <g transform="matrix(1.125,0,0,1.125,-55,-25)">
                        <circle cx="280" cy="280" r="20" style="fill:white;"/>
                    </g>
                    <g transform="matrix(1.125,0,0,1.125,5,-25)">
                        <circle cx="120" cy="280" r="20" style="fill:white;"/>
                    </g>
                    <g transform="matrix(1.5,0,0,1.5,-129.998,-207.5)">
                        <circle cx="280" cy="280" r="20" style="fill:white;"/>
                    </g>
                    <g transform="matrix(1.5,0,0,1.5,-69.9978,-207.5)">
                        <circle cx="120" cy="280" r="20" style="fill:white;"/>
                    </g>
                    <g transform="matrix(1,-2.56777e-15,8.09369e-16,-0.627903,2.50443e-13,262.292)">
                        <path d="M200,-8.294L200,99.206L105.205,318.189L200,99.206C200,99.206 261.199,245.195 294.799,318.189" style="fill:none;fill-rule:nonzero;stroke:white;stroke-width:34.92px;"/>
                    </g>
                </g>
            </g>
        </g>
    </g>
</svg>
